# WaveFront *.obj file (generated by Autodesk ATF)

mtllib legs-front.mtl

g legs-front

v 46.312330 69.876311 102.000002
v 47.316150 70.907165 102.000002
v 55.346709 71.030578 102.000002
v 56.350528 70.030578 102.000002
v 56.350528 -70.030578 102.000002
v 55.346709 -71.030578 102.000002
v 47.316150 -70.907165 102.000002
v 46.312330 -69.876311 102.000002
v 67.755224 -93.103704 232.356265
v 66.842379 -94.276226 233.352459
v 66.838559 -94.280031 233.352459
v 67.755224 93.103704 232.356265
v 67.755224 84.900575 232.356265
v 56.617906 50.660316 105.056143
v 56.617906 -50.660316 105.056143
v 67.755224 -84.900575 232.356265
v 66.838559 94.280031 233.352459
v 66.842379 94.276226 233.352459
v 58.808001 94.156618 233.352459
v 46.655959 -50.660316 105.927701
v 57.717025 -84.666150 232.356265
v 58.804181 -83.926116 233.352459
v 58.808001 -83.922265 233.352459
v 47.739310 -49.892989 106.836740
v 47.739310 49.892989 106.836740
v 58.808001 83.922265 233.352459
v 58.804181 83.926116 233.352459
v 57.717025 84.666150 232.356265
v 46.655959 50.660316 105.927701
v 57.717025 -92.949438 232.356265
v 58.804181 -94.152695 233.352459
v 58.804181 94.152695 233.352459
v 57.717025 92.949438 232.356265
v 58.808001 -94.156618 233.352459
v 66.842379 -84.113834 233.352459
v 66.838559 -84.109806 233.352459
v 55.708867 49.892989 106.139494
v 55.708867 -49.892989 106.139494
v 66.842379 84.113834 233.352459
v 66.838559 84.109806 233.352459
vt -4.631233 6.987631 0.000000
vt -4.731615 7.090716 0.000000
vt -4.631233 -6.987631 0.000000
vt -4.731615 -7.090716 0.000000
vt -5.534671 7.103058 0.000000
vt -5.534671 -7.103058 0.000000
vt -5.635053 -7.003058 0.000000
vt -5.635053 7.003058 0.000000
vt 8.911435 2.295067 0.000000
vt -3.981051 -0.919855 0.000000
vt 8.937163 2.155731 0.000000
vt -4.053848 -1.083760 0.000000
vt -4.053946 -1.083230 0.000000
vt 6.300436 7.003058 0.000000
vt 5.993654 5.066032 0.000000
vt 6.300436 -7.003058 0.000000
vt 5.993654 -5.066032 0.000000
vt -6.784984 -8.490058 0.000000
vt -6.784984 9.310370 0.000000
vt -6.784984 8.490058 0.000000
vt -6.784984 -9.310370 0.000000
vt 2.119422 -0.601384 0.000000
vt 2.145151 -0.462047 0.000000
vt -10.773064 2.613538 0.000000
vt -10.845861 2.777443 0.000000
vt -10.845959 2.776913 0.000000
vt 0.522415 0.100000 0.000000
vt 13.911242 0.100000 0.000000
vt 0.593486 0.900000 0.000000
vt 13.982313 0.900000 0.000000
vt -2.032897 0.845958 0.000000
vt -2.154764 0.740903 0.000000
vt 10.261879 -3.812992 0.000000
vt 10.131543 -3.914838 0.000000
vt 10.261752 -3.813520 0.000000
vt -8.222596 -3.191466 0.000000
vt 4.072180 1.467484 0.000000
vt -8.344463 -3.086412 0.000000
vt 3.941844 1.569329 0.000000
vt 4.072053 1.468011 0.000000
vt -0.073728 -8.466615 0.000000
vt -0.073728 -9.294944 0.000000
vt 0.073728 -8.392612 0.000000
vt 0.073728 -9.415270 0.000000
vt 0.073728 9.415270 0.000000
vt -0.073728 9.294944 0.000000
vt 0.073728 8.392612 0.000000
vt -0.073728 8.466615 0.000000
vt -8.997633 2.316562 0.000000
vt -9.006122 2.172927 0.000000
vt 3.894852 -0.898360 0.000000
vt 3.984889 -1.066564 0.000000
vt 3.984921 -1.066017 0.000000
vt -2.205621 -0.622878 0.000000
vt 10.686865 2.592044 0.000000
vt -2.214110 -0.479243 0.000000
vt 10.776902 2.760247 0.000000
vt 10.776934 2.759701 0.000000
vt 0.070711 -7.483948 0.000000
vt 0.070711 2.494649 0.000000
vt -0.070711 -7.560681 0.000000
vt -0.070711 2.571382 0.000000
vt -0.280418 8.392612 0.000000
vt -0.280418 9.415270 0.000000
vt -0.280800 8.392227 0.000000
vt -0.280800 9.415662 0.000000
vt -1.083856 8.410981 0.000000
vt -1.083856 9.428003 0.000000
vt -1.084238 8.411383 0.000000
vt -1.084238 9.427623 0.000000
vt 13.477585 0.100000 0.000000
vt 13.406514 0.900000 0.000000
vt 0.088758 0.100000 0.000000
vt 0.017687 0.900000 0.000000
vt -6.387924 -6.987631 0.000000
vt -5.993654 5.066032 0.000000
vt -6.387924 6.987631 0.000000
vt 6.697496 8.466615 0.000000
vt 6.697496 9.294944 0.000000
vt 6.697496 -9.294944 0.000000
vt 6.697496 -8.466615 0.000000
vt -5.993654 -5.066032 0.000000
vt 0.070711 2.571382 0.000000
vt -0.070711 2.494649 0.000000
vt 0.070711 -7.560681 0.000000
vt -0.070711 -7.483948 0.000000
vt 8.222596 -3.191466 0.000000
vt 8.344463 -3.086412 0.000000
vt -4.139939 1.493160 0.000000
vt -4.026542 1.601425 0.000000
vt -4.139875 1.493712 0.000000
vt 0.067559 8.490058 0.000000
vt 0.067559 9.310370 0.000000
vt -0.067559 8.411383 0.000000
vt -0.067559 9.427623 0.000000
vt -0.067559 -9.427623 0.000000
vt 0.067559 -9.310370 0.000000
vt -0.067559 -8.411383 0.000000
vt 0.067559 -8.490058 0.000000
vt 2.032897 0.845958 0.000000
vt -10.329637 -3.838669 0.000000
vt 2.154764 0.740903 0.000000
vt -10.216241 -3.946933 0.000000
vt -10.329574 -3.839220 0.000000
vt -0.908979 8.392612 0.000000
vt -0.908597 8.392227 0.000000
vt -0.908979 9.415270 0.000000
vt -0.908597 9.415662 0.000000
vt -0.105541 8.410981 0.000000
vt -0.105541 9.428003 0.000000
vt -0.105159 8.411383 0.000000
vt -0.105159 9.427623 0.000000
vt 13.238396 0.100000 0.000000
vt 13.238396 0.900000 0.000000
vt 0.090493 0.100000 0.000000
vt 0.018033 0.900000 0.000000
vt 0.000000 0.100000 0.000000
vt 13.147903 0.100000 0.000000
vt -0.000000 0.900000 0.000000
vt 13.220363 0.900000 0.000000
vt 0.000000 0.100000 0.000000
vt 9.978598 0.100000 0.000000
vt 0.000000 0.900000 0.000000
vt 9.978598 0.900000 0.000000
vn 0.000000 0.000000 -0.100000
vn 0.000000 0.000000 -0.100000
vn 0.000000 0.000000 -0.100000
vn 0.000000 0.000000 -0.100000
vn 0.000000 0.000000 -0.100000
vn 0.000000 0.000000 -0.100000
vn 0.000000 0.000000 -0.100000
vn 0.000000 0.000000 -0.100000
vn 0.069371 -0.069636 -0.018395
vn 0.069371 -0.069636 -0.018395
vn 0.069371 -0.069636 -0.018395
vn 0.069371 -0.069636 -0.018395
vn 0.069371 -0.069636 -0.018395
vn 0.099619 0.000000 -0.008716
vn 0.099619 0.000000 -0.008716
vn 0.099619 0.000000 -0.008716
vn 0.099619 0.000000 -0.008716
vn 0.099619 0.000000 -0.008716
vn 0.099619 0.000000 -0.008716
vn 0.099619 0.000000 -0.008716
vn 0.099619 0.000000 -0.008716
vn 0.069371 0.069636 -0.018395
vn 0.069371 0.069636 -0.018395
vn 0.069371 0.069636 -0.018395
vn 0.069371 0.069636 -0.018395
vn 0.069371 0.069636 -0.018395
vn -0.001513 0.098481 -0.017299
vn -0.001513 0.098481 -0.017299
vn -0.001513 0.098481 -0.017299
vn -0.001513 0.098481 -0.017299
vn -0.068847 0.068301 0.024394
vn -0.068847 0.068301 0.024394
vn -0.068847 0.068301 0.024394
vn -0.068847 0.068301 0.024394
vn -0.068847 0.068301 0.024394
vn -0.068847 -0.068301 0.024394
vn -0.068847 -0.068301 0.024394
vn -0.068847 -0.068301 0.024394
vn -0.068847 -0.068301 0.024394
vn -0.068847 -0.068301 0.024394
vn -0.067559 0.000000 0.073728
vn -0.067559 0.000000 0.073728
vn -0.067559 0.000000 0.073728
vn -0.067559 0.000000 0.073728
vn -0.067559 0.000000 0.073728
vn -0.067559 0.000000 0.073728
vn -0.067559 0.000000 0.073728
vn -0.067559 0.000000 0.073728
vn -0.071512 -0.069636 -0.006069
vn -0.071512 -0.069636 -0.006069
vn -0.071512 -0.069636 -0.006069
vn -0.071512 -0.069636 -0.006069
vn -0.071512 -0.069636 -0.006069
vn -0.071512 0.069636 -0.006069
vn -0.071512 0.069636 -0.006069
vn -0.071512 0.069636 -0.006069
vn -0.071512 0.069636 -0.006069
vn -0.071512 0.069636 -0.006069
vn -0.064279 0.000000 0.076604
vn -0.064279 0.000000 0.076604
vn -0.064279 0.000000 0.076604
vn -0.064279 0.000000 0.076604
vn 0.000000 0.000000 0.100000
vn 0.000000 0.000000 0.100000
vn 0.000000 0.000000 0.100000
vn 0.000000 0.000000 0.100000
vn 0.000000 0.000000 0.100000
vn 0.000000 0.000000 0.100000
vn 0.000000 0.000000 0.100000
vn 0.000000 0.000000 0.100000
vn -0.001513 -0.098481 -0.017299
vn -0.001513 -0.098481 -0.017299
vn -0.001513 -0.098481 -0.017299
vn -0.001513 -0.098481 -0.017299
vn -0.099619 0.000000 0.008716
vn -0.099619 0.000000 0.008716
vn -0.099619 0.000000 0.008716
vn -0.099619 0.000000 0.008716
vn -0.099619 0.000000 0.008716
vn -0.099619 0.000000 0.008716
vn -0.099619 0.000000 0.008716
vn -0.099619 0.000000 0.008716
vn 0.076604 0.000000 0.064279
vn 0.076604 0.000000 0.064279
vn 0.076604 0.000000 0.064279
vn 0.076604 0.000000 0.064279
vn 0.072037 -0.068301 0.012069
vn 0.072037 -0.068301 0.012069
vn 0.072037 -0.068301 0.012069
vn 0.072037 -0.068301 0.012069
vn 0.072037 -0.068301 0.012069
vn 0.073728 0.000000 0.067559
vn 0.073728 0.000000 0.067559
vn 0.073728 0.000000 0.067559
vn 0.073728 0.000000 0.067559
vn 0.073728 0.000000 0.067559
vn 0.073728 0.000000 0.067559
vn 0.073728 0.000000 0.067559
vn 0.073728 0.000000 0.067559
vn 0.072037 0.068301 0.012069
vn 0.072037 0.068301 0.012069
vn 0.072037 0.068301 0.012069
vn 0.072037 0.068301 0.012069
vn 0.072037 0.068301 0.012069
vn 0.000000 0.000000 0.100000
vn 0.000000 0.000000 0.100000
vn 0.000000 0.000000 0.100000
vn 0.000000 0.000000 0.100000
vn 0.000000 0.000000 0.100000
vn 0.000000 0.000000 0.100000
vn 0.000000 0.000000 0.100000
vn 0.000000 0.000000 0.100000
vn 0.002256 -0.096593 0.025783
vn 0.002256 -0.096593 0.025783
vn 0.002256 -0.096593 0.025783
vn 0.002256 -0.096593 0.025783
vn 0.002256 0.096593 0.025783
vn 0.002256 0.096593 0.025783
vn 0.002256 0.096593 0.025783
vn 0.002256 0.096593 0.025783
vn 0.008716 0.000000 0.099619
vn 0.008716 0.000000 0.099619
vn 0.008716 0.000000 0.099619
vn 0.008716 0.000000 0.099619
usemtl Steel_-_Satin
f 1/1/1 2/2/2 8/3/3
f 8/3/3 2/2/2 7/4/4
f 7/4/4 2/2/2 3/5/5
f 7/4/4 3/5/5 6/6/6
f 6/6/6 3/5/5 5/7/7
f 5/7/7 3/5/5 4/8/8
f 5/9/9 9/10/10 6/11/11
f 6/11/11 9/10/10 11/12/12
f 11/12/12 9/10/10 10/13/13
f 4/14/14 14/15/15 5/16/16
f 5/16/16 14/15/15 15/17/17
f 5/16/16 15/17/17 16/18/18
f 12/19/19 13/20/20 4/14/14
f 4/14/14 13/20/20 14/15/15
f 16/18/18 9/21/21 5/16/16
f 4/22/22 3/23/23 12/24/24
f 12/24/24 3/23/23 17/25/25
f 12/24/24 17/25/25 18/26/26
f 2/27/27 19/28/28 3/29/29
f 3/29/29 19/28/28 17/30/30
f 24/31/31 20/32/32 23/33/33
f 23/33/33 20/32/32 21/34/34
f 23/33/33 21/34/34 22/35/35
f 25/36/36 26/37/37 29/38/38
f 29/38/38 26/37/37 28/39/39
f 28/39/39 26/37/37 27/40/40
f 21/41/41 30/42/42 22/43/43
f 22/43/43 30/42/42 31/44/44
f 32/45/45 33/46/46 27/47/47
f 27/47/47 33/46/46 28/48/48
f 8/49/49 7/50/50 30/51/51
f 30/51/51 7/50/50 34/52/52
f 30/51/51 34/52/52 31/53/53
f 1/54/54 33/55/55 2/56/56
f 2/56/56 33/55/55 19/57/57
f 19/57/57 33/55/55 32/58/58
f 24/59/59 25/60/60 20/61/61
f 20/61/61 25/60/60 29/62/62
f 22/63/63 31/64/64 23/65/65
f 23/65/65 31/64/64 34/66/66
f 23/65/65 34/66/66 36/67/67
f 36/67/67 34/66/66 11/68/68
f 36/67/67 11/68/68 35/69/69
f 35/69/69 11/68/68 10/70/70
f 7/71/71 6/72/72 34/73/73
f 34/73/73 6/72/72 11/74/74
f 8/75/75 29/76/76 1/77/77
f 1/77/77 29/76/76 28/78/78
f 1/77/77 28/78/78 33/79/79
f 30/80/80 21/81/81 8/75/75
f 8/75/75 21/81/81 20/82/82
f 8/75/75 20/82/82 29/76/76
f 14/83/83 37/84/84 15/85/85
f 15/85/85 37/84/84 38/86/86
f 37/87/87 14/88/88 40/89/89
f 40/89/89 14/88/88 13/90/90
f 40/89/89 13/90/90 39/91/91
f 13/92/92 12/93/93 39/94/94
f 39/94/94 12/93/93 18/95/95
f 10/96/96 9/97/97 35/98/98
f 35/98/98 9/97/97 16/99/99
f 38/100/100 36/101/101 15/102/102
f 15/102/102 36/101/101 16/103/103
f 16/103/103 36/101/101 35/104/104
f 27/105/105 26/106/106 32/107/107
f 32/107/107 26/106/106 19/108/108
f 19/108/108 26/106/106 40/109/109
f 19/108/108 40/109/109 17/110/110
f 17/110/110 40/109/109 39/111/111
f 17/110/110 39/111/111 18/112/112
f 25/113/113 37/114/114 26/115/115
f 26/115/115 37/114/114 40/116/116
f 24/117/117 23/118/118 38/119/119
f 38/119/119 23/118/118 36/120/120
f 25/121/121 24/122/122 37/123/123
f 37/123/123 24/122/122 38/124/124
# 40 vertices
# 124 texture params
# 124 normals
# 76 facets

# 1 groups
